<?xml version="1.0" encoding="UTF-8"?>
<svg id="_レイヤー_2" data-name="レイヤー_2" xmlns="http://www.w3.org/2000/svg" viewBox="0 0 227.97 227.95">
  <defs>
    <style>
      .cls-1 {
        fill: #fff;
        font-family: Montserrat-Bold, Montserrat;
        font-size: 21px;
        font-weight: 700;
      }
    </style>
  </defs>
  <g id="_レイヤー_1-2" data-name="レイヤー_1">
    <g>
      <text class="cls-1" transform="translate(77.72 59.91) rotate(-30.74)"><tspan x="0" y="0"> </tspan></text>
      <text class="cls-1" transform="translate(82.28 56.83) rotate(-23.21)"><tspan x="0" y="0">S</tspan></text>
      <text class="cls-1" transform="translate(93.88 51.65) rotate(-11.12)"><tspan x="0" y="0">C</tspan></text>
      <text class="cls-1" transform="translate(108.24 48.75) rotate(1.79)"><tspan x="0" y="0">R</tspan></text>
      <text class="cls-1" transform="translate(122.93 48.98) rotate(15.59)"><tspan x="0" y="0">O</tspan></text>
      <text class="cls-1" transform="translate(139.2 53.72) rotate(28.24)"><tspan x="0" y="0">L</tspan></text>
      <text class="cls-1" transform="translate(149.85 59.37) rotate(38.88)"><tspan x="0" y="0">L</tspan></text>
      <text class="cls-1" transform="translate(159.23 67.18) rotate(46.72)"><tspan x="0" y="0"> </tspan></text>
      <text class="cls-1" transform="translate(163.32 70.76) rotate(56.43)"><tspan x="0" y="0">D</tspan></text>
      <text class="cls-1" transform="translate(172.57 84.45) rotate(70.97)"><tspan x="0" y="0">O</tspan></text>
      <text class="cls-1" transform="translate(178.69 100.2) rotate(88.68)"><tspan x="0" y="0">W</tspan></text>
      <text class="cls-1" transform="translate(178.81 123.62) rotate(105.89)"><tspan x="0" y="0">N</tspan></text>
      <text class="cls-1" transform="translate(173.94 139.25) rotate(115.43)"><tspan x="0" y="0"> </tspan></text>
      <text class="cls-1" transform="translate(171.54 144.33) rotate(120.38)"><tspan x="0" y="0"> </tspan></text>
      <text class="cls-1" transform="translate(168.69 149.21) rotate(125.38)"><tspan x="0" y="0"> </tspan></text>
      <text class="cls-1" transform="translate(165.44 153.82) rotate(130.39)"><tspan x="0" y="0"> </tspan></text>
      <text class="cls-1" transform="translate(161.8 158.11) rotate(135.37)"><tspan x="0" y="0"> </tspan></text>
      <text class="cls-1" transform="translate(157.8 162.08) rotate(140.36)"><tspan x="0" y="0"> </tspan></text>
      <text class="cls-1" transform="translate(153.48 165.68) rotate(145.29)"><tspan x="0" y="0"> </tspan></text>
      <text class="cls-1" transform="translate(148.84 168.91) rotate(150.19)"><tspan x="0" y="0"> </tspan></text>
      <text class="cls-1" transform="translate(144.24 171.89) rotate(158.23)"><tspan x="0" y="0">S</tspan></text>
      <text class="cls-1" transform="translate(132.51 176.76) rotate(170.33)"><tspan x="0" y="0">C</tspan></text>
      <text class="cls-1" transform="translate(118.08 179.31) rotate(-176.77)"><tspan x="0" y="0">R</tspan></text>
      <text class="cls-1" transform="translate(103.42 178.71) rotate(-163)"><tspan x="0" y="0">O</tspan></text>
      <text class="cls-1" transform="translate(87.24 173.56) rotate(-150.31)"><tspan x="0" y="0">L</tspan></text>
      <text class="cls-1" transform="translate(76.73 167.64) rotate(-139.66)"><tspan x="0" y="0">L</tspan></text>
      <text class="cls-1" transform="translate(67.58 159.61) rotate(-131.84)"><tspan x="0" y="0"> </tspan></text>
      <text class="cls-1" transform="translate(63.65 155.91) rotate(-122.6)"><tspan x="0" y="0">D</tspan></text>
      <text class="cls-1" transform="translate(54.66 142) rotate(-107.58)"><tspan x="0" y="0">O</tspan></text>
      <text class="cls-1" transform="translate(48.95 126.12) rotate(-89.89)"><tspan x="0" y="0">W</tspan></text>
      <text class="cls-1" transform="translate(49.41 102.69) rotate(-72.68)"><tspan x="0" y="0">N</tspan></text>
      <text class="cls-1" transform="translate(54.67 87.18) rotate(-63.13)"><tspan x="0" y="0"> </tspan></text>
    </g>
  </g>
</svg>