<?xml version="1.0" encoding="UTF-8"?>
<svg xmlns="http://www.w3.org/2000/svg" xmlns:xlink="http://www.w3.org/1999/xlink" viewBox="0 0 800 800">
  <defs>
    <style>
      .cls-1 {
        isolation: isolate;
      }

      .cls-2 {
        fill: #445e72;
      }

      .cls-3 {
        mix-blend-mode: overlay;
      }

      .cls-4 {
        fill: url(#_名称未設定グラデーション_21);
      }
    </style>
    <linearGradient id="_名称未設定グラデーション_21" data-name="名称未設定グラデーション 21" x1="14.64" y1="14.64" x2="785.36" y2="785.36" gradientUnits="userSpaceOnUse">
      <stop offset="0" stop-color="#fff"/>
      <stop offset=".09" stop-color="#f8f8f8"/>
      <stop offset=".22" stop-color="#e5e5e5"/>
      <stop offset=".37" stop-color="#c5c5c5"/>
      <stop offset=".54" stop-color="#999"/>
      <stop offset=".72" stop-color="#616161"/>
      <stop offset=".92" stop-color="#1e1e1e"/>
      <stop offset="1" stop-color="#000"/>
    </linearGradient>
  </defs>
  <g class="cls-1">
    <g id="_レイヤー_2" data-name="レイヤー_2">
      <g id="Layer_1">
        <g>
          <g>
            <path class="cls-2" d="M750,0H50C22.36,0,0,22.36,0,50v700c0,27.64,22.36,50,50,50h700c27.64,0,50-22.36,50-50V50c0-27.64-22.36-50-50-50ZM662.5,675H137.5c-6.91,0-12.5-5.59-12.5-12.5s5.59-12.5,12.5-12.5h525c6.91,0,12.5,5.59,12.5,12.5s-5.59,12.5-12.5,12.5ZM662.5,600H137.5c-6.91,0-12.5-5.59-12.5-12.5s5.59-12.5,12.5-12.5h525c6.91,0,12.5,5.59,12.5,12.5s-5.59,12.5-12.5,12.5ZM137.5,350h225c6.91,0,12.5,5.59,12.5,12.5s-5.59,12.5-12.5,12.5h-225c-6.91,0-12.5-5.59-12.5-12.5s5.59-12.5,12.5-12.5ZM125,287.5c0-6.91,5.59-12.5,12.5-12.5h225c6.91,0,12.5,5.59,12.5,12.5s-5.59,12.5-12.5,12.5h-225c-6.91,0-12.5-5.59-12.5-12.5ZM137.5,425h225c6.91,0,12.5,5.59,12.5,12.5s-5.59,12.5-12.5,12.5h-225c-6.91,0-12.5-5.59-12.5-12.5s5.59-12.5,12.5-12.5ZM137.5,500h225c6.91,0,12.5,5.59,12.5,12.5s-5.59,12.5-12.5,12.5h-225c-6.91,0-12.5-5.59-12.5-12.5s5.59-12.5,12.5-12.5ZM675,512.5c0,6.91-5.59,12.5-12.5,12.5h-225c-6.91,0-12.5-5.59-12.5-12.5v-225c0-6.91,5.59-12.5,12.5-12.5h225c6.91,0,12.5,5.59,12.5,12.5v225ZM775,150H25V50c0-13.8,11.2-25,25-25h700c13.8,0,25,11.2,25,25v100Z"/>
            <path class="cls-2" d="M87.5,50c-20.71,0-37.5,16.79-37.5,37.5s16.79,37.5,37.5,37.5,37.5-16.79,37.5-37.5-16.79-37.5-37.5-37.5ZM87.5,100c-6.91,0-12.5-5.59-12.5-12.5s5.59-12.5,12.5-12.5,12.5,5.59,12.5,12.5-5.59,12.5-12.5,12.5Z"/>
            <path class="cls-2" d="M412.5,50h-225c-20.71,0-37.5,16.79-37.5,37.5s16.79,37.5,37.5,37.5h225c20.71,0,37.5-16.79,37.5-37.5s-16.79-37.5-37.5-37.5ZM412.5,100h-225c-6.91,0-12.5-5.59-12.5-12.5s5.59-12.5,12.5-12.5h225c6.91,0,12.5,5.59,12.5,12.5s-5.59,12.5-12.5,12.5Z"/>
          </g>
          <g class="cls-3">
            <path class="cls-4" d="M750,0H50C22.36,0,0,22.36,0,50v700c0,27.64,22.36,50,50,50h700c27.64,0,50-22.36,50-50V50c0-27.64-22.36-50-50-50ZM662.5,675H137.5c-6.91,0-12.5-5.59-12.5-12.5s5.59-12.5,12.5-12.5h525c6.91,0,12.5,5.59,12.5,12.5s-5.59,12.5-12.5,12.5ZM662.5,600H137.5c-6.91,0-12.5-5.59-12.5-12.5s5.59-12.5,12.5-12.5h525c6.91,0,12.5,5.59,12.5,12.5s-5.59,12.5-12.5,12.5ZM137.5,350h225c6.91,0,12.5,5.59,12.5,12.5s-5.59,12.5-12.5,12.5h-225c-6.91,0-12.5-5.59-12.5-12.5s5.59-12.5,12.5-12.5ZM125,287.5c0-6.91,5.59-12.5,12.5-12.5h225c6.91,0,12.5,5.59,12.5,12.5s-5.59,12.5-12.5,12.5h-225c-6.91,0-12.5-5.59-12.5-12.5ZM137.5,425h225c6.91,0,12.5,5.59,12.5,12.5s-5.59,12.5-12.5,12.5h-225c-6.91,0-12.5-5.59-12.5-12.5s5.59-12.5,12.5-12.5ZM137.5,500h225c6.91,0,12.5,5.59,12.5,12.5s-5.59,12.5-12.5,12.5h-225c-6.91,0-12.5-5.59-12.5-12.5s5.59-12.5,12.5-12.5ZM675,512.5c0,6.91-5.59,12.5-12.5,12.5h-225c-6.91,0-12.5-5.59-12.5-12.5v-225c0-6.91,5.59-12.5,12.5-12.5h225c6.91,0,12.5,5.59,12.5,12.5v225ZM775,150H25V50c0-13.8,11.2-25,25-25h700c13.8,0,25,11.2,25,25v100Z"/>
            <path class="cls-4" d="M87.5,50c-20.71,0-37.5,16.79-37.5,37.5s16.79,37.5,37.5,37.5,37.5-16.79,37.5-37.5-16.79-37.5-37.5-37.5ZM87.5,100c-6.91,0-12.5-5.59-12.5-12.5s5.59-12.5,12.5-12.5,12.5,5.59,12.5,12.5-5.59,12.5-12.5,12.5Z"/>
            <path class="cls-4" d="M412.5,50h-225c-20.71,0-37.5,16.79-37.5,37.5s16.79,37.5,37.5,37.5h225c20.71,0,37.5-16.79,37.5-37.5s-16.79-37.5-37.5-37.5ZM412.5,100h-225c-6.91,0-12.5-5.59-12.5-12.5s5.59-12.5,12.5-12.5h225c6.91,0,12.5,5.59,12.5,12.5s-5.59,12.5-12.5,12.5Z"/>
          </g>
        </g>
      </g>
    </g>
  </g>
</svg>