<?xml version="1.0" encoding="UTF-8"?>
<svg xmlns="http://www.w3.org/2000/svg" xmlns:xlink="http://www.w3.org/1999/xlink" viewBox="0 0 68.22 68.22">
  <defs>
    <style>
      .cls-1 {
        isolation: isolate;
      }

      .cls-2 {
        fill: #66f;
      }

      .cls-3 {
        mix-blend-mode: overlay;
      }

      .cls-4 {
        fill: url(#_名称未設定グラデーション_19);
      }
    </style>
    <linearGradient id="_名称未設定グラデーション_19" data-name="名称未設定グラデーション 19" x1="4793" y1="-164.89" x2="4861.22" y2="-164.89" gradientTransform="translate(-4793 199)" gradientUnits="userSpaceOnUse">
      <stop offset="0" stop-color="#fff"/>
      <stop offset="1" stop-color="#000"/>
    </linearGradient>
  </defs>
  <g class="cls-1">
    <g id="_レイヤー_2" data-name="レイヤー_2">
      <g id="_レイヤー_1-2" data-name="レイヤー_1">
        <g>
          <g>
            <path class="cls-2" d="M22.03,28.94l7.45,5.74c.29,2.32,2.24,4.12,4.63,4.12,2.59,0,4.69-2.1,4.69-4.69,0-.1-.02-.19-.03-.29l10.91-12.91c.76-.85.78-2.09.03-2.75-.74-.66-1.96-.5-2.72.35l-10.72,11.46c-.65-.34-1.38-.55-2.16-.55-.84,0-1.62.24-2.3.62l-7.01-4.88c-.9-.67-2.26-.36-3.03.69-.76,1.04-.65,2.43.26,3.09Z"/>
            <path class="cls-2" d="M34.11,0c-1.5,0-2.71,1.21-2.71,2.71s1.21,2.71,2.71,2.71c7.93,0,15.09,3.21,20.29,8.41,5.2,5.2,8.4,12.36,8.41,20.29,0,7.93-3.21,15.09-8.41,20.29-5.2,5.2-12.36,8.4-20.29,8.41-7.93,0-15.09-3.21-20.29-8.41-5.2-5.2-8.4-12.36-8.41-20.29,0-5.76,1.7-11.12,4.62-15.61l2.51,1.88c.27.2.63.25.95.13.32-.12.55-.39.62-.73l1.69-8c.3-.52.43-1.11.36-1.7l.76-3.61c.08-.38-.07-.77-.38-1.01-.31-.23-.73-.26-1.07-.08L3.52,11.86c-.3.16-.5.47-.52.81-.03.34.12.67.4.87l2.29,1.71C2.1,20.66,0,27.14,0,34.11c0,18.84,15.27,34.11,34.11,34.11,18.84,0,34.11-15.27,34.11-34.11C68.22,15.27,52.95,0,34.11,0Z"/>
          </g>
          <g class="cls-3">
            <path class="cls-4" d="M22.03,28.94l7.45,5.74c.29,2.32,2.24,4.12,4.63,4.12,2.59,0,4.69-2.1,4.69-4.69,0-.1-.02-.19-.03-.29l10.91-12.91c.76-.85.78-2.09.03-2.75-.74-.66-1.96-.5-2.72.35l-10.72,11.46c-.65-.34-1.38-.55-2.16-.55-.84,0-1.62.24-2.3.62l-7.01-4.88c-.9-.67-2.26-.36-3.03.69-.76,1.04-.65,2.43.26,3.09Z"/>
            <path class="cls-4" d="M34.11,0c-1.5,0-2.71,1.21-2.71,2.71s1.21,2.71,2.71,2.71c7.93,0,15.09,3.21,20.29,8.41,5.2,5.2,8.4,12.36,8.41,20.29,0,7.93-3.21,15.09-8.41,20.29-5.2,5.2-12.36,8.4-20.29,8.41-7.93,0-15.09-3.21-20.29-8.41-5.2-5.2-8.4-12.36-8.41-20.29,0-5.76,1.7-11.12,4.62-15.61l2.51,1.88c.27.2.63.25.95.13.32-.12.55-.39.62-.73l1.69-8c.3-.52.43-1.11.36-1.7l.76-3.61c.08-.38-.07-.77-.38-1.01-.31-.23-.73-.26-1.07-.08L3.52,11.86c-.3.16-.5.47-.52.81-.03.34.12.67.4.87l2.29,1.71C2.1,20.66,0,27.14,0,34.11c0,18.84,15.27,34.11,34.11,34.11,18.84,0,34.11-15.27,34.11-34.11C68.22,15.27,52.95,0,34.11,0Z"/>
          </g>
        </g>
      </g>
    </g>
  </g>
</svg>