<?xml version="1.0" encoding="UTF-8"?>
<svg xmlns="http://www.w3.org/2000/svg" xmlns:xlink="http://www.w3.org/1999/xlink" viewBox="0 0 63.64 71.44">
  <defs>
    <style>
      .cls-1 {
        isolation: isolate;
      }

      .cls-2 {
        mix-blend-mode: overlay;
      }

      .cls-3 {
        fill: #fc8060;
      }

      .cls-4 {
        fill: url(#_名称未設定グラデーション_16);
      }
    </style>
    <radialGradient id="_名称未設定グラデーション_16" data-name="名称未設定グラデーション 16" cx="4824.82" cy="-163.28" fx="4824.82" fy="-163.28" r="33.83" gradientTransform="translate(-4793 199)" gradientUnits="userSpaceOnUse">
      <stop offset="0" stop-color="#fff"/>
      <stop offset="1" stop-color="#000"/>
    </radialGradient>
  </defs>
  <g class="cls-1">
    <g id="_レイヤー_2" data-name="レイヤー_2">
      <g id="_レイヤー_1-2" data-name="レイヤー_1">
        <g>
          <g>
            <path class="cls-3" d="M27.18,15.25c-2.48,1.03-4.69,2.51-6.61,4.42-1.91,1.92-3.4,4.13-4.42,6.61-.74,1.78.1,3.81,1.88,4.55.43.18.89.26,1.34.26,1.37,0,2.66-.81,3.22-2.16.67-1.61,1.66-3.07,2.91-4.34,1.27-1.26,2.72-2.24,4.34-2.91,1.78-.73,2.63-2.77,1.89-4.55-.74-1.78-2.79-2.61-4.56-1.88Z"/>
            <polygon class="cls-3" points="23.7 65.54 40.18 65.54 40.99 61.31 22.88 61.31 23.7 65.54"/>
            <path class="cls-3" d="M31.73,71.44c2.97,0,5.38-1.79,5.38-4h-10.76c0,2.21,2.41,4,5.38,4Z"/>
            <path class="cls-3" d="M8.48,52.42c.48.51.97,1.02,1.49,1.5l3.49-3.83c-.38-.36-.76-.74-1.12-1.13l-3.86,3.45Z"/>
            <path class="cls-3" d="M.02,29.59c-.01.39-.02.79-.02,1.18,0,.31,0,.63.01.95l3.69-.19h1.48c0-.25-.01-.5-.01-.76,0-.3,0-.6.01-.89L.02,29.59Z"/>
            <path class="cls-3" d="M13.63,11.33l-3.46-3.85c-.52.48-1.02.98-1.5,1.49l3.83,3.49c.37-.39.74-.76,1.13-1.12Z"/>
            <path class="cls-3" d="M31.84,5.18c.29,0,.58,0,.87.01L32.99.02c-.38-.01-.77-.02-1.15-.02-.33,0-.65,0-.97.01l.32,5.17c.22,0,.43,0,.65,0Z"/>
            <path class="cls-3" d="M63.62,29.81l-5.17.27c0,.25,0,.5,0,.74,0,.32,0,.63-.02.95l5.17.3c.02-.41.02-.83.02-1.24,0-.33,0-.67-.02-1.01Z"/>
            <path class="cls-3" d="M50.15,11.46c.39.37.76.74,1.12,1.12l3.86-3.46c-.48-.52-.98-1.02-1.49-1.5l-3.48,3.83Z"/>
            <path class="cls-3" d="M49.97,50.3l3.45,3.86c.52-.48,1.02-.97,1.5-1.49l-3.82-3.49c-.36.38-.74.76-1.13,1.12Z"/>
            <path class="cls-3" d="M46.18,17.44c-3.68-3.68-8.76-5.95-14.36-5.95s-10.68,2.27-14.35,5.95c-3.68,3.68-5.95,8.76-5.95,14.36,0,5.89,2.95,12.81,6.63,16.39,3.05,2.97,4.63,5.09,5.46,6.58h-2.18l.91,4.71h19.19l.9-4.71h-2.41c.82-1.48,2.41-3.61,5.46-6.58,3.69-3.58,6.63-10.5,6.63-16.39s-2.27-10.68-5.94-14.36ZM29.94,52c-.07.03-.13.04-.2.05-.27.03-.54-.07-.66-.28l-5.34-9.5c-.15-.26,0-.58.33-.71.33-.13.71-.03.86.23l5.34,9.5c.15.26,0,.58-.33.71ZM29.84,21.69c-1.62.67-3.07,1.66-4.34,2.91-1.26,1.27-2.24,2.73-2.91,4.34-.56,1.35-1.85,2.16-3.22,2.16-.45,0-.9-.08-1.34-.26-1.78-.74-2.63-2.77-1.88-4.55,1.02-2.48,2.51-4.69,4.42-6.61,1.92-1.91,4.13-3.39,6.61-4.42,1.77-.73,3.81.1,4.55,1.88.73,1.78-.11,3.82-1.89,4.55ZM39.89,41.88l-5.91,9.77c-.13.21-.4.33-.67.31-.07,0-.13-.02-.2-.04-.32-.12-.45-.43-.29-.69l5.91-9.77c.16-.27.55-.39.87-.27.32.12.45.43.29.69Z"/>
          </g>
          <g class="cls-2">
            <path class="cls-4" d="M27.18,15.25c-2.48,1.03-4.69,2.51-6.61,4.42-1.91,1.92-3.4,4.13-4.42,6.61-.74,1.78.1,3.81,1.88,4.55.43.18.89.26,1.34.26,1.37,0,2.66-.81,3.22-2.16.67-1.61,1.66-3.07,2.91-4.34,1.27-1.26,2.72-2.24,4.34-2.91,1.78-.73,2.63-2.77,1.89-4.55-.74-1.78-2.79-2.61-4.56-1.88Z"/>
            <polygon class="cls-4" points="23.7 65.54 40.18 65.54 40.99 61.31 22.88 61.31 23.7 65.54"/>
            <path class="cls-4" d="M31.73,71.44c2.97,0,5.38-1.79,5.38-4h-10.76c0,2.21,2.41,4,5.38,4Z"/>
            <path class="cls-4" d="M8.48,52.42c.48.51.97,1.02,1.49,1.5l3.49-3.83c-.38-.36-.76-.74-1.12-1.13l-3.86,3.45Z"/>
            <path class="cls-4" d="M.02,29.59c-.01.39-.02.79-.02,1.18,0,.31,0,.63.01.95l3.69-.19h1.48c0-.25-.01-.5-.01-.76,0-.3,0-.6.01-.89L.02,29.59Z"/>
            <path class="cls-4" d="M13.63,11.33l-3.46-3.85c-.52.48-1.02.98-1.5,1.49l3.83,3.49c.37-.39.74-.76,1.13-1.12Z"/>
            <path class="cls-4" d="M31.84,5.18c.29,0,.58,0,.87.01L32.99.02c-.38-.01-.77-.02-1.15-.02-.33,0-.65,0-.97.01l.32,5.17c.22,0,.43,0,.65,0Z"/>
            <path class="cls-4" d="M63.62,29.81l-5.17.27c0,.25,0,.5,0,.74,0,.32,0,.63-.02.95l5.17.3c.02-.41.02-.83.02-1.24,0-.33,0-.67-.02-1.01Z"/>
            <path class="cls-4" d="M50.15,11.46c.39.37.76.74,1.12,1.12l3.86-3.46c-.48-.52-.98-1.02-1.49-1.5l-3.48,3.83Z"/>
            <path class="cls-4" d="M49.97,50.3l3.45,3.86c.52-.48,1.02-.97,1.5-1.49l-3.82-3.49c-.36.38-.74.76-1.13,1.12Z"/>
            <path class="cls-4" d="M46.18,17.44c-3.68-3.68-8.76-5.95-14.36-5.95s-10.68,2.27-14.35,5.95c-3.68,3.68-5.95,8.76-5.95,14.36,0,5.89,2.95,12.81,6.63,16.39,3.05,2.97,4.63,5.09,5.46,6.58h-2.18l.91,4.71h19.19l.9-4.71h-2.41c.82-1.48,2.41-3.61,5.46-6.58,3.69-3.58,6.63-10.5,6.63-16.39s-2.27-10.68-5.94-14.36ZM29.94,52c-.07.03-.13.04-.2.05-.27.03-.54-.07-.66-.28l-5.34-9.5c-.15-.26,0-.58.33-.71.33-.13.71-.03.86.23l5.34,9.5c.15.26,0,.58-.33.71ZM29.84,21.69c-1.62.67-3.07,1.66-4.34,2.91-1.26,1.27-2.24,2.73-2.91,4.34-.56,1.35-1.85,2.16-3.22,2.16-.45,0-.9-.08-1.34-.26-1.78-.74-2.63-2.77-1.88-4.55,1.02-2.48,2.51-4.69,4.42-6.61,1.92-1.91,4.13-3.39,6.61-4.42,1.77-.73,3.81.1,4.55,1.88.73,1.78-.11,3.82-1.89,4.55ZM39.89,41.88l-5.91,9.77c-.13.21-.4.33-.67.31-.07,0-.13-.02-.2-.04-.32-.12-.45-.43-.29-.69l5.91-9.77c.16-.27.55-.39.87-.27.32.12.45.43.29.69Z"/>
          </g>
        </g>
      </g>
    </g>
  </g>
</svg>