<?xml version="1.0" encoding="UTF-8"?>
<svg xmlns="http://www.w3.org/2000/svg" xmlns:xlink="http://www.w3.org/1999/xlink" viewBox="0 0 70.78 73.19">
  <defs>
    <style>
      .cls-1 {
        isolation: isolate;
      }

      .cls-2 {
        fill: #efde8e;
      }

      .cls-3 {
        mix-blend-mode: overlay;
      }

      .cls-4 {
        fill: url(#_名称未設定グラデーション_16);
      }
    </style>
    <radialGradient id="_名称未設定グラデーション_16" data-name="名称未設定グラデーション 16" cx="4828.39" cy="-162.41" fx="4828.39" fy="-162.41" r="36" gradientTransform="translate(-4793 199)" gradientUnits="userSpaceOnUse">
      <stop offset="0" stop-color="#fff"/>
      <stop offset="1" stop-color="#000"/>
    </radialGradient>
  </defs>
  <g class="cls-1">
    <g id="_レイヤー_2" data-name="レイヤー_2">
      <g id="_レイヤー_1-2" data-name="レイヤー_1">
        <g>
          <g>
            <path class="cls-2" d="M69.51,22.22l-10.82-2.85c-3.57-.94-6.35-3.72-7.29-7.28l-2.85-10.82c-.2-.75-.87-1.27-1.65-1.27s-1.45.52-1.65,1.27l-2.85,10.82c-.94,3.56-3.72,6.35-7.29,7.28l-10.82,2.85c-.75.2-1.27.87-1.27,1.65s.52,1.45,1.27,1.65l10.82,2.85c3.57.94,6.35,3.72,7.29,7.28l2.85,10.82c.2.75.87,1.27,1.65,1.27s1.45-.52,1.65-1.27l2.85-10.82c.94-3.56,3.72-6.35,7.29-7.28l10.82-2.85c.75-.2,1.27-.87,1.27-1.65s-.52-1.45-1.27-1.65Z"/>
            <path class="cls-2" d="M28.39,57.6l-6.61-1.74c-2.18-.57-3.88-2.27-4.45-4.45l-1.74-6.61c-.12-.46-.53-.78-1.01-.78s-.89.32-1.01.78l-1.74,6.61c-.57,2.18-2.27,3.88-4.45,4.45l-6.61,1.74c-.46.12-.78.53-.78,1.01s.32.89.78,1.01l6.61,1.74c2.18.57,3.88,2.27,4.45,4.45l1.74,6.61c.12.46.53.78,1.01.78s.89-.32,1.01-.78l1.74-6.61c.57-2.18,2.27-3.88,4.45-4.45l6.61-1.74c.46-.12.78-.53.78-1.01,0-.47-.32-.89-.78-1.01Z"/>
          </g>
          <g class="cls-3">
            <path class="cls-4" d="M69.51,22.22l-10.82-2.85c-3.57-.94-6.35-3.72-7.29-7.28l-2.85-10.82c-.2-.75-.87-1.27-1.65-1.27s-1.45.52-1.65,1.27l-2.85,10.82c-.94,3.56-3.72,6.35-7.29,7.28l-10.82,2.85c-.75.2-1.27.87-1.27,1.65s.52,1.45,1.27,1.65l10.82,2.85c3.57.94,6.35,3.72,7.29,7.28l2.85,10.82c.2.75.87,1.27,1.65,1.27s1.45-.52,1.65-1.27l2.85-10.82c.94-3.56,3.72-6.35,7.29-7.28l10.82-2.85c.75-.2,1.27-.87,1.27-1.65s-.52-1.45-1.27-1.65Z"/>
            <path class="cls-4" d="M28.39,57.6l-6.61-1.74c-2.18-.57-3.88-2.27-4.45-4.45l-1.74-6.61c-.12-.46-.53-.78-1.01-.78s-.89.32-1.01.78l-1.74,6.61c-.57,2.18-2.27,3.88-4.45,4.45l-6.61,1.74c-.46.12-.78.53-.78,1.01s.32.89.78,1.01l6.61,1.74c2.18.57,3.88,2.27,4.45,4.45l1.74,6.61c.12.46.53.78,1.01.78s.89-.32,1.01-.78l1.74-6.61c.57-2.18,2.27-3.88,4.45-4.45l6.61-1.74c.46-.12.78-.53.78-1.01,0-.47-.32-.89-.78-1.01Z"/>
          </g>
        </g>
      </g>
    </g>
  </g>
</svg>