<svg xmlns="http://www.w3.org/2000/svg" width="726.002" height="658.714" viewBox="0 0 726.002 658.714">
  <g id="レイヤー_1" transform="translate(0.01)" opacity="0.09">
    <g id="グループ_22" data-name="グループ 22" transform="translate(-0.01)">
      <g id="グループ_18" data-name="グループ 18" transform="translate(23.564)">
        <path id="パス_14" data-name="パス 14" d="M458.214,113.327C515.907,171.02,549.325,243.512,558.241,317.5,552.809,141.237,408.238,0,230.624,0A326.332,326.332,0,0,0,43.27,58.817C170.645-20.118,343.576-1.311,458.214,113.327Z" transform="translate(95.307)" fill="#606060"/>
        <path id="パス_15" data-name="パス 15" d="M106.307,294.175C48.614,236.482,15.2,163.99,6.28,90,11.712,266.265,156.321,407.5,333.9,407.5a326.332,326.332,0,0,0,187.354-58.817c-127.375,78.935-300.306,60.129-414.944-54.509Z" transform="translate(-6.28 247.17)" fill="#606060"/>
      </g>
      <g id="グループ_21" data-name="グループ 21" transform="translate(0 89.088)">
        <path id="パス_16" data-name="パス 16" d="M44.71,63.68h0v.037l.037.037.075.075.15.262.225.337.187.337.3.562.3.487.15.3.15.225.15.187.15.225.112.225.15.225.112.187.112.225.112.225.075.15.112.187.075.15.112.15.075.15.075.15.075.112.075.15.075.112.112.15.075.187.112.15.075.15.112.187.075.15.112.15.075.112.075.15.075.112.075.112.075.112.037.112.075.075.037.112.037.075.075.075.037.075v.075l.037.037.037.075.037.037V71.7h.037v.075" transform="translate(122.826 85.799)" fill="#606060"/>
        <g id="グループ_20" data-name="グループ 20" transform="translate(0 67.958)">
          <path id="パス_17" data-name="パス 17" d="M52.055,58.71h0c0,.075-.037.112-.075.187v.075a.975.975,0,0,0,.112-.262Z" transform="translate(142.792 4.191)" fill="#606060"/>
          <path id="パス_18" data-name="パス 18" d="M51.98,58.9l.075-.187C51.98,58.935,51.98,58.9,51.98,58.9Z" transform="translate(142.792 4.191)" fill="#606060"/>
          <g id="グループ_19" data-name="グループ 19">
            <path id="パス_19" data-name="パス 19" d="M55.03,56.24Z" transform="translate(151.168 -2.592)" fill="#606060"/>
            <path id="パス_20" data-name="パス 20" d="M691.189,539.883c-67.921-1.723-129.885-33.155-184.132-72.267-21.991-15.06-46.155-26.711-69.607-39.3-14.686-8.617-31.956-12.663-45.443-22.965,12.812.524,25.288,5.02,37.426,9.141,38.138,12.325,79.2,21.466,115.574,37.95,53.5,21.2,104.785,52.6,163.79,47.991a330.112,330.112,0,0,1-88.488-19.706c-22.478-9.253-47.728-21.2-70.319-29.933-37.239-16.971-77.212-26.187-116.1-38.288-44.806-14.461-88.451-33.492-128.537-58.48,10.752,4.2,19.893,11.763,30.458,16.521,11.426,5.994,23.827,9.74,35.852,14.311,19.931,7.605,41.472,8.617,61.777,14.761,13,4.571,27.011,5.245,39.936,10.115,29.109,10.377,56.008,21.242,85.229,30.233,15.1,5.507,31.319,14.91,48.89,20.567,28.51,7.755,58.443,7.867,87.776,8.654,7.268-.225,14.873.187,21.916-1.161-17.8-.6-35.44-3.559-53.31-3.409-32.556-1.012-62.189-7.605-90.661-22.4-32.631-11.951-62.414-21.766-96.356-34.541-14.273-5.957-29.858-5.432-44.282-9.928-21.392-8.392-44.806-9.216-66.123-18.132-47.354-19.106-89.837-52.037-114.825-97.367a6.218,6.218,0,0,0,.824-.112c-15.735-22.59-24.389-49.077-34.916-73.728-4.833-11.052-10.9-21.429-16.933-31.844,3.072-1.686,6.107-3.409,9.178-5.1,6.893-3.784,13.412-8.242,20.455-11.838,5.357-2.847,10.565-6.294,15.1-7.83a228.558,228.558,0,0,1,28.51-8.055,83.2,83.2,0,0,1,9.965-2.248,91.543,91.543,0,0,1,14.161-2.66,89.469,89.469,0,0,0-12.513.637c-3.671.562-7.455.375-11.089,1.236-4.72.787-9.516,1.424-14.2,2.473-4.458,1.124-8.841,2.622-13.225,3.971-6.781,2.1-12.738,5.882-18.882,9.253-7.942,4.121-14.835,9.74-22.216,14.723-1.836,1.424-3.859,2.922-5.844,4.346-1.049-1.836-2.135-3.671-3.147-5.507-1.124-2.435-2.248-4.833-3.372-7.23.637.45,1.611.412,2.735-.6a19.935,19.935,0,0,0,2.548-2.473,8.712,8.712,0,0,1-.974.637c-1.911,1.049-4.72,3.184-3.334-.487a27.008,27.008,0,0,1,3.934-4.87c1.2-1.086,2.248-2.548,3.784-3.109-1.911.3-3.447,1.836-4.983,2.96-1.5,1.386-3.3,2.7-4.083,4.645a4.107,4.107,0,0,0-.337,1.8c-5.507-11.314-11.614-22.028-19.968-31.881.112,0,.187-.075.3-.112a1.313,1.313,0,0,1-.187-.3.939.939,0,0,0-.262.15c-.112-.112-.187-.225-.3-.337a24,24,0,0,1,2.847-1.2c.562-.337,1.2-.749,1.761-1.161.15-.075.3-.112.487-.187a46.222,46.222,0,0,0,9.591-5.357c2.21-1.648,4.009-3.784,6.144-5.545a46.159,46.159,0,0,0,6.219-7.305c1.012-1.5,1.761-3.147,2.847-4.608a38.935,38.935,0,0,0,3.709-7.193c-.262.637,0,.075.15-.337a1.543,1.543,0,0,1,.112-.3v-.075c-.037.075-.187.412-.037.075a6.111,6.111,0,0,0,.712-3.522,2.233,2.233,0,0,0-1.461-1.461,12.11,12.11,0,0,1-2.772-1.424c-.487-.562-.9-.824-.937-1.5a18.465,18.465,0,0,1,0-3.821.284.284,0,0,1,.075-.15.633.633,0,0,1,.075-.187c.037-.075.112-.15.15-.225a35.712,35.712,0,0,1,6.444-5.994,67.984,67.984,0,0,1,6.406-5.1,125.368,125.368,0,0,1,12.4-8.5c3.222-2.06,6.256-4.533,8.467-5.994,3.372-2.21,5.47-4.383,9.029-7.23,3.671-2.922,6.706-5.657,10.715-8.542-2.21,1.049-4.233,2.473-6.406,3.634-2.21,1.274-4.5,2.435-6.631,3.746-2.135,1.274-4.121,2.847-6.219,4.158-1.836,1.2-3.746,2.285-5.545,3.522-3.372,2.1-6.781,4.121-9.965,6.519-.15.075-.337.187-.487.262a94.4,94.4,0,0,0-9.328,5.582,41.516,41.516,0,0,0-3.259,2.772c-3.971,2.285-7.268,5.694-10.377,8.991a49.3,49.3,0,0,0-6.743,8.055c-1.124,1.723-2.06,3.6-3.035,5.395-.3.3-.562.6-.862.9h-.037a6.814,6.814,0,0,0-1.049,1.236,6.748,6.748,0,0,0,1.648-1.424c3.259-.862,7.343-1.873,9.366-1.686h.075v.3a3.907,3.907,0,0,1-.412,2.06c-.637,1.723-1.2,3.372-1.723,4.945a6.358,6.358,0,0,0-.375.524,41.6,41.6,0,0,0-2.772,4.421,24.263,24.263,0,0,1-2.36,2.922,99.52,99.52,0,0,1-7.23,9.965c-.262.3-3.035,3.859-3.859,4.571-1.124,1.124-2.135,1.8-3.484,3-.824.674-1.648,1.461-2.435,2.135-19.144-22.178-2.023-53.535-42.259-62.826-18.02-2.548-34.691,16.184-52.3,8.579h0a1.5,1.5,0,0,0-.562-.112h-.112a.286.286,0,0,1-.187-.075H76.49a17,17,0,0,0-1.986-.45C61.13,70.317,22.168,66.8-.01,76.311c29.259-7.043,85.192-11.838,101.338,18.507,11.913,25.25,9.778,51.137,13.936,80.1,8.13,25.887,24.838,49.864,47.2,65.448,19.331,15.285,47.8,12.738,63.088,33.08,17.083,16.971,24.688,40.648,40.76,58.63C284.524,355.9,307.9,375.381,335.7,386.808c14.386,9.141,30.682,15.51,46.867,21.167,28.285,10.265,55.408,23.639,81.52,38.962C490.2,459,512.976,476.495,536.765,492.3c56.158,33.043,123.217,60.541,189.227,48.328-11.614,1.274-23.265.45-34.8-.787ZM167.414,123.515a30.786,30.786,0,0,1,3.072,4.983c-1.124-1.723-2.173-3.372-3.072-4.983Z" transform="translate(0.01 -41.92)" fill="#606060"/>
            <path id="パス_21" data-name="パス 21" d="M45.93,66.725c1.049-.524,2.023-1.161,3.072-1.686a10.093,10.093,0,0,1,1.086-.6c-.187.112-.337.262-.524.375-.262.187-.6.45-.862.637h-.075a9.986,9.986,0,0,0-2.51,1.424l-.15-.15Z" transform="translate(126.177 19.927)" fill="#606060"/>
          </g>
        </g>
        <path id="パス_22" data-name="パス 22" d="M44.83,63.81h.037l.037.075v.075l.112.15.112.262.112.225.187.3.15.3.15.225.075.187.112.15.075.187.112.15.075.15.075.15.075.112.075.15.075.112.075.15.075.112.075.112.037.112.075.112.075.112.037.112.037.075.075.112.037.075.037.075.037.075.037.075.037.075.037.075.075.112" transform="translate(123.156 86.156)" fill="#606060"/>
        <path id="パス_23" data-name="パス 23" d="M44.76,64.087h0l.037.037h0a1.465,1.465,0,0,0,.15.187l.15.262.15.225.112.225.112.225.112.187.112.187.112.187.112.187.075.15.075.15.075.15.075.15.075.15.075.15.075.15.075.15.075.112.075.112.075.112v.112l.112.112v.112l.112.112v.075l.112.075v.075l.075.075v.075l.075.075h0v.075h0v.037h0V68.4l-.112-.112-.075-.15-.112-.225-.112-.225-.15-.3-.15-.337-.15-.3-.15-.3-.15-.262L45.959,66l-.075-.15-.075-.15-.075-.112v-.112l-.112-.112-.075-.112-.075-.112-.075-.112-.075-.112-.075-.112v-.112l-.112-.112v-.112l-.075-.075v-.075l-.075-.075v-.075l-.075-.075h0v-.075h0v-.075h0v.037l.075.075.112.112.112.15.15.187.15.225.187.262.187.262.187.262.187.262.187.225.15.225.15.225.15.225.15.187.112.187.112.15.112.15.112.15.112.15.075.112.075.112.075.112.075.112v.075l.112.075v.075l.075.075v.075l.037.037h0v.075h0v.037h0v-.037h0v-.075h0l-.037-.112-.075-.075-.112-.15-.112-.187-.15-.262-.225-.337-.225-.337-.225-.3-.187-.3-.187-.262-.15-.225-.15-.225-.15-.225-.112-.187-.112-.187-.112-.187L45.7,64.8l-.112-.15-.075-.15-.075-.112-.075-.075-.075-.075v-.075l-.112-.075h-.037l-.037-.075H45.06v-.075h0V63.9h0" transform="translate(122.963 86.403)" fill="#606060"/>
        <path id="パス_24" data-name="パス 24" d="M53.119,67.573a3.1,3.1,0,0,1,1.049-.787,3.4,3.4,0,0,0-1.274.637.116.116,0,0,0-.075.037,3.241,3.241,0,0,1,.375-.262,7.558,7.558,0,0,0-1.349.674c0-.037.075-.075.112-.112a4.239,4.239,0,0,1-.487.375,1.139,1.139,0,0,1-.262.187c-.749.524-1.573,1.012-2.285,1.573a16.979,16.979,0,0,0-1.948-3.859c-.225-.562-.487-1.161-.749-1.761-.3-.749-1.386-1.161-1.686-.187,0,1.573,1.049,2.96,1.723,4.346a17.6,17.6,0,0,1,.862,1.573c.112.262.225.524.337.749v.037c-.112.075-.187.112-.3.187a6.168,6.168,0,0,0-.787.337c-.3.225-1.012.787-1.049.824.412-.15.749-.412,1.161-.6a5.62,5.62,0,0,0,1.349-.412H48.1c-.112.075-.262.187-.375.262a11.325,11.325,0,0,0,5.957-3.971c-.487.337-.974.712-1.5,1.049a7.888,7.888,0,0,1,1.012-.937Z" transform="translate(122.359 85.352)" fill="#606060"/>
        <path id="パス_25" data-name="パス 25" d="M166.325,24.379c-1.161.3-2.248.824-3.409,1.124-1.948.524-3.934.9-5.882,1.386A65,65,0,0,0,145.5,31.123c-2.1,1.161-3.372,1.424-5.058,2.473a5.385,5.385,0,0,0-.937.674,79.77,79.77,0,0,0-9.366,5.507,112.806,112.806,0,0,0-11.426,9.366c-4.533,3.634-9.89,8.729-12.251,12.4a75.5,75.5,0,0,0-4.945,6.406,56.479,56.479,0,0,0-4.2,6.032,68.629,68.629,0,0,0-4.458,7.268,9.2,9.2,0,0,0-.9,1.948.939.939,0,0,1,.15-.262,1.467,1.467,0,0,1,.3-.375,1.547,1.547,0,0,1-.262.412c.674-.6,1.8-1.761,2.285-2.1,6.144-3.559,10.715-7.68,14.386-10.3,2.772-2.173,4.758-3.971,6.968-5.545q3.428-2.192,6.968-4.271a7.18,7.18,0,0,1,.337,1.2c-.075-.187-.112-.337-.187-.487.45,1.8.3,4.421-.375,5.507h0a.674.674,0,0,0-.337.225h0a.539.539,0,0,0-.112.075,2.52,2.52,0,0,1-.45.225,148.094,148.094,0,0,0-19.518,12.887c-5.62,4.046-11.576,7.643-17.046,11.876a90.767,90.767,0,0,0-7.643,6.331c-4.2,4.383-8.167,9.029-12.176,13.6-1.424,1.536-2.847,3.072-4.2,4.683a26.382,26.382,0,0,0-2.922,3.222c-1.986,2.51-7.38,10.227-9.478,15.472-.6,1.536-1.573,3.109-2.173,4.458,1.349-1.761,2.622-3.746,3.9-5.62h0a.116.116,0,0,1-.037.075,6.52,6.52,0,0,1,.487-.562v.037a4.75,4.75,0,0,1,.412-.487,6.519,6.519,0,0,1,.487-.562,7.2,7.2,0,0,0,.524-.562l.337-.337c-.749.862-1.461,1.723-2.248,2.548,1.5-1.274,3.522-3.072,4.8-4.083a48.168,48.168,0,0,0,5.582-4.121,109.451,109.451,0,0,0,11.651-8.279c5.395-4.233,8.429-7.081,13.9-10.565a75.909,75.909,0,0,1,16-8.317c1.086-.412,2.023-.787,2.885-1.161-.637.3-1.311.637-1.948,1.012a144.2,144.2,0,0,1,14.985-4.158c.674-.15,1.311-.262,1.986-.412a1.346,1.346,0,0,0,.412-.075,39.864,39.864,0,0,0-7.605,5.844A13.031,13.031,0,0,0,111.217,102c.037,0,.075-.075.15-.112-.037.075-.112.112-.15.187a.116.116,0,0,0,.075-.037c-.075.075,3-1.873,4.458-3.035h0c.037.412.487.712,1.049.45.712-.45,1.424-.937,2.1-1.386a4.154,4.154,0,0,0,.712-.337c.749-.524,1.5-1.086,2.21-1.686,3.409-2.06,6.069-4.758,9.965-5.957a12.016,12.016,0,0,0-1.611.262.694.694,0,0,0,.262-.075,8.245,8.245,0,0,0,1.948-.487,2.508,2.508,0,0,1-.749,0,81.423,81.423,0,0,0-9.066.262c-3.634.262-5.807.3-9.179,1.5-1.986.674-4.009,1.2-5.957,1.948a13.57,13.57,0,0,0-1.611.9c.6-.562,1.161-1.161,1.761-1.723,2.135-1.424,4.009-3.259,5.32-4.158,4.046-3.559,8.242-6.968,11.913-10.864,2.922-3.934,5.17-6.219,7.343-11.127,1.311-2.585,2.023-7.98,2.061-12.1-.15-1.873-.375-3.522-.6-5.32a15.176,15.176,0,0,0,.262-2.622c.824-.487,1.686-.937,2.473-1.386,3-1.536,4.533-1.911,7.717-3.821h-.037a69.2,69.2,0,0,0,9.7-5.919,86.711,86.711,0,0,0,7.343-5.395c2.473-1.686,4.271-4.121,6.369-6.181-.375.225-.712.45-1.086.674Z" transform="translate(127.687 -23.78)" fill="#606060"/>
        <path id="パス_26" data-name="パス 26" d="M349.926,47.36a41.146,41.146,0,0,1-6.631,5.62l.075-.075a6.662,6.662,0,0,1-1.124.637c.262-.262.524-.487.787-.749-8.392,5.62-18.057,8.055-27.835,12.176-15.135,6.668-34.991,14.274-52.449,15.36-37.875,9.478-77.4,8.429-115.649,15.735-2.1.3-4.233.712-6.369,1.086a20.781,20.781,0,0,1-5.957,1.2h-.712c-10.677,2.06-21.616,4.533-32.443,6.069-13,.45-29.259,8.879-38.849,18.694a.731.731,0,0,1-.262-.037h0c-3.072.787-11.014-1.311-13.262,1.911-5.245.712-3.184,3.971,1.124,2.323-.112,1.686.9,2.248,2.173,2.323a1.831,1.831,0,0,0,.037.9c-2.548,3.222,1.686,5.282,4.571,5.1a3.056,3.056,0,0,0,2.36,3.334c-4.233-.187-4.72,5.432-.262,4.533.6,3.3,4.571,1.349,6.706.824-2.81.937-8.279,4.833-3.6,6.743-1.461,1.386-1.349,4.121.712,4.8a22.783,22.783,0,0,0-1.648,1.648c-4.083,1.311-8.317,2.7-12.251,4.308,6.032-1.349,12.026-2.7,18.17-3.447-1.986,2.96-8.879,6.818-6.481,10.715,4.046,3.035,13.637-9.478,17.8-11.5a176.316,176.316,0,0,1,49.789,5.769c20.492,3.709,41.4,5.919,60.279,15.472-3.409-2.96-7.081-3.634-10.415-5.245.375.15.749.262,1.124.375a48.51,48.51,0,0,0-11.838-5.02.638.638,0,0,1,.262.037,130.5,130.5,0,0,0-28.023-6.668c0-.9-.974-1.049-1.723-1.086-12.738-1.686-24.838-6.968-36.826-11.389,39.224-1.536,78.561,6.294,117.6.974-37.838-1.049-75.189-5.994-112.69-10.565.749-.45,1.5-.9,2.285-1.311,25.438,2.473,51.25,1.424,76.762.3,23.789-2.96,45.181-8.13,68.82-10.565a4.531,4.531,0,0,1-.712-.037c6.107-.712,11.951-2.96,18.095-3.109-45.63,1.012-91.036,8.5-136.854,5.807,24.2-5.732,49.264-4.2,73.69-8.954,16.222-2.96,31.731-8.8,48.1-11.389,23.152-2.248,45.368-7.493,67.509-12.4-28.884,3.559-56.345,5.395-85.079,8.5-17.458,1.386-34.579,5.17-51.962,1.311-.075-.037-.112-.112-.15-.15,13.487-13.075,38.887-8.092,55.3-13.187,19.668-2.847,39.824-6.444,58.181-14.124-1.2.637-2.622,1.2-3.671,1.8,18.432-4.683,37.089-12.85,48.253-28.922a2.058,2.058,0,0,0-.337.262,64.709,64.709,0,0,0,5.395-6.594ZM61.72,157.427c.674-.524,1.349-1.012,2.06-1.461a9.772,9.772,0,0,0,2.735-.337,1.43,1.43,0,0,0,.337.337c-1.723.45-3.409.937-5.1,1.461Z" transform="translate(126.72 40.979)" fill="#606060"/>
      </g>
    </g>
  </g>
</svg>
