<svg xmlns="http://www.w3.org/2000/svg" width="282.485" height="256.303" viewBox="0 0 282.485 256.303">
  <g id="bird" transform="translate(0.01)" opacity="0.2">
    <g id="グループ_22" data-name="グループ 22" transform="translate(-0.01)">
      <g id="グループ_18" data-name="グループ 18" transform="translate(9.169)">
        <path id="パス_14" data-name="パス 14" d="M204.723,44.1a135.187,135.187,0,0,1,38.92,79.444A127.54,127.54,0,0,0,43.27,22.886C92.831-7.828,160.118-.51,204.723,44.1Z" transform="translate(10.65)" fill="#7f90a4"/>
        <path id="パス_15" data-name="パス 15" d="M45.2,169.444A135.187,135.187,0,0,1,6.28,90,127.54,127.54,0,0,0,206.654,190.653c-49.561,30.713-116.848,23.4-161.453-21.209Z" transform="translate(-6.28 41.192)" fill="#7f90a4"/>
      </g>
      <g id="グループ_21" data-name="グループ 21" transform="translate(0 34.664)">
        <path id="パス_16" data-name="パス 16" d="M44.71,63.68h0v.015l.015.015.029.029.058.1.087.131.073.131.117.219.117.189.058.117.058.087.058.073.058.087.044.087.058.087.044.073.044.087.044.087.029.058.044.073.029.058.044.058.029.058.029.058.029.044.029.058.029.044.044.058.029.073L46.08,66l.029.058.044.073.029.058.044.058.029.044.029.058.029.044.029.044.029.044.015.044.029.029.015.044.015.029.029.029.015.029v.029l.015.015.015.029.015.015V66.8h.015v.029" transform="translate(20.478 -5.518)" fill="#7f90a4"/>
        <g id="グループ_20" data-name="グループ 20" transform="translate(0 26.442)">
          <path id="パス_17" data-name="パス 17" d="M52.009,58.71h0c0,.029-.015.044-.029.073v.029a.379.379,0,0,0,.044-.1Z" transform="translate(23.805 -34.235)" fill="#7f90a4"/>
          <path id="パス_18" data-name="パス 18" d="M51.98,58.783l.029-.073C51.98,58.8,51.98,58.783,51.98,58.783Z" transform="translate(23.805 -34.235)" fill="#7f90a4"/>
          <g id="グループ_19" data-name="グループ 19">
            <path id="パス_19" data-name="パス 19" d="M55.03,56.24Z" transform="translate(25.201 -35.366)" fill="#7f90a4"/>
            <path id="パス_20" data-name="パス 20" d="M268.933,235.676c-26.428-.671-50.538-12.9-71.645-28.119-8.557-5.86-17.959-10.393-27.084-15.291-5.714-3.353-12.434-4.927-17.682-8.936,4.985.2,9.839,1.953,14.562,3.557,14.839,4.8,30.816,8.353,44.97,14.766,20.816,8.25,40.771,20.466,63.73,18.673a128.447,128.447,0,0,1-34.431-7.667c-8.746-3.6-18.571-8.251-27.361-11.647-14.489-6.6-30.043-10.189-45.174-14.9a225.028,225.028,0,0,1-50.013-22.754c4.184,1.633,7.74,4.577,11.851,6.428,4.446,2.332,9.271,3.79,13.95,5.568,7.755,2.959,16.137,3.353,24.037,5.743,5.058,1.778,10.51,2.041,15.539,3.936,11.326,4.038,21.792,8.265,33.162,11.764,5.874,2.143,12.186,5.8,19.023,8,11.093,3.017,22.74,3.061,34.154,3.367a55.158,55.158,0,0,0,8.527-.452c-6.924-.233-13.79-1.385-20.743-1.326-12.667-.394-24.2-2.959-35.276-8.717-12.7-4.65-24.285-8.469-37.492-13.44-5.554-2.318-11.618-2.114-17.23-3.863-8.323-3.265-17.434-3.586-25.728-7.055-18.425-7.434-34.955-20.247-44.678-37.885a2.424,2.424,0,0,0,.321-.044c-6.122-8.79-9.49-19.1-13.586-28.687a124.38,124.38,0,0,0-6.589-12.39c1.2-.656,2.376-1.327,3.571-1.982,2.682-1.472,5.219-3.207,7.959-4.606a47.706,47.706,0,0,1,5.874-3.047,88.935,88.935,0,0,1,11.093-3.134,32.382,32.382,0,0,1,3.877-.875,35.618,35.618,0,0,1,5.51-1.035,34.81,34.81,0,0,0-4.869.248c-1.429.219-2.9.146-4.315.481-1.837.306-3.7.554-5.525.962-1.735.437-3.44,1.02-5.146,1.545a40.372,40.372,0,0,0-7.347,3.6A89.634,89.634,0,0,0,80.09,92.2c-.714.554-1.5,1.137-2.274,1.691-.408-.714-.831-1.429-1.224-2.143-.437-.947-.875-1.88-1.312-2.813.248.175.627.16,1.064-.233a7.755,7.755,0,0,0,.991-.962,3.39,3.39,0,0,1-.379.248c-.743.408-1.837,1.239-1.3-.189a10.508,10.508,0,0,1,1.531-1.9,5.068,5.068,0,0,1,1.472-1.21,4.905,4.905,0,0,0-1.939,1.152,5.545,5.545,0,0,0-1.589,1.808,1.6,1.6,0,0,0-.131.7,57.794,57.794,0,0,0-7.769-12.4c.044,0,.073-.029.117-.044a.511.511,0,0,1-.073-.117.366.366,0,0,0-.1.058c-.044-.044-.073-.087-.117-.131a9.338,9.338,0,0,1,1.108-.466c.219-.131.466-.292.685-.452.058-.029.117-.044.19-.073a17.985,17.985,0,0,0,3.732-2.085c.86-.641,1.56-1.472,2.391-2.157a17.961,17.961,0,0,0,2.42-2.842c.394-.583.685-1.224,1.108-1.793a15.15,15.15,0,0,0,1.443-2.8c-.1.248,0,.029.058-.131a.6.6,0,0,1,.044-.117v-.029c-.015.029-.073.16-.015.029a2.378,2.378,0,0,0,.277-1.37.869.869,0,0,0-.568-.569,4.712,4.712,0,0,1-1.079-.554c-.19-.219-.35-.321-.364-.583a7.186,7.186,0,0,1,0-1.487.11.11,0,0,1,.029-.058.246.246,0,0,1,.029-.073c.015-.029.044-.058.058-.087a13.9,13.9,0,0,1,2.507-2.332A26.455,26.455,0,0,1,83.6,53.7a48.781,48.781,0,0,1,4.825-3.309c1.254-.8,2.434-1.764,3.294-2.332,1.312-.86,2.128-1.705,3.513-2.813,1.429-1.137,2.609-2.2,4.169-3.324-.86.408-1.647.962-2.493,1.414-.86.5-1.749.947-2.58,1.458s-1.6,1.108-2.42,1.618c-.714.466-1.458.889-2.157,1.37-1.312.816-2.638,1.6-3.877,2.536-.058.029-.131.073-.19.1a36.729,36.729,0,0,0-3.63,2.172,16.151,16.151,0,0,0-1.268,1.079,18.5,18.5,0,0,0-4.038,3.5A19.184,19.184,0,0,0,74.128,60.3c-.437.671-.8,1.4-1.181,2.1-.117.117-.219.233-.335.35H72.6a2.651,2.651,0,0,0-.408.481,2.626,2.626,0,0,0,.641-.554,14.325,14.325,0,0,1,3.644-.656H76.5v.117a1.52,1.52,0,0,1-.16.8c-.248.671-.466,1.312-.671,1.924a2.468,2.468,0,0,0-.146.2,16.187,16.187,0,0,0-1.079,1.72,9.441,9.441,0,0,1-.918,1.137A38.723,38.723,0,0,1,70.717,71.8c-.1.117-1.181,1.5-1.5,1.778-.437.437-.831.7-1.356,1.166-.321.262-.641.568-.947.831-7.449-8.63-.787-20.83-16.443-24.445-7.011-.991-13.5,6.3-20.349,3.338h0a.585.585,0,0,0-.219-.044h-.044a.111.111,0,0,1-.073-.029h-.029a6.617,6.617,0,0,0-.773-.175C23.779,52.969,8.62,51.6-.01,55.3c11.385-2.74,33.148-4.606,39.43,7.2,4.635,9.825,3.8,19.9,5.423,31.165A49.343,49.343,0,0,0,63.21,119.134c7.522,5.947,18.6,4.956,24.547,12.871,6.647,6.6,9.606,15.816,15.86,22.813a65.76,65.76,0,0,0,27,21.3c5.6,3.557,11.938,6.035,18.236,8.236a192.912,192.912,0,0,1,31.719,15.16c10.16,4.694,19.023,11.5,28.279,17.653,21.851,12.857,47.943,23.556,73.628,18.8a62.77,62.77,0,0,1-13.542-.306ZM65.134,73.668a11.978,11.978,0,0,1,1.2,1.939c-.437-.671-.845-1.312-1.2-1.939Z" transform="translate(0.01 -41.92)" fill="#7f90a4"/>
            <path id="パス_21" data-name="パス 21" d="M45.93,65.329c.408-.2.787-.452,1.2-.656a3.924,3.924,0,0,1,.423-.233c-.073.044-.131.1-.2.146-.1.073-.233.175-.335.248H46.98a3.886,3.886,0,0,0-.977.554l-.058-.058Z" transform="translate(21.036 -31.613)" fill="#7f90a4"/>
          </g>
        </g>
        <path id="パス_22" data-name="パス 22" d="M44.83,63.81h.015l.015.029v.029l.044.058.044.1.044.087.073.117.058.117.058.087.029.073.044.058.029.073.044.058.029.058.029.058.029.044.029.058.029.044.029.058.029.044.029.044.015.044.029.044.029.044.015.044.015.029.029.044.015.029.015.029.015.029.015.029.015.029.015.029.029.044" transform="translate(20.533 -5.459)" fill="#7f90a4"/>
        <path id="パス_23" data-name="パス 23" d="M44.76,63.973h0l.015.015h0a.57.57,0,0,0,.058.073l.058.1.058.087.044.087.044.087.044.073.044.073.044.073.044.073.029.058.029.058.029.058.029.058.029.058.029.058.029.058.029.058.029.044.029.044.029.044v.044l.044.044v.044l.044.044v.029l.044.029v.029l.029.029v.029l.029.029h0v.029h0v.015h0v-.058l-.044-.044-.029-.058-.044-.087-.044-.087-.058-.117-.058-.131-.058-.117-.058-.117-.058-.1-.044-.073-.029-.058-.029-.058-.029-.044v-.044l-.044-.044-.029-.044-.029-.044-.029-.044-.029-.044-.029-.044v-.044l-.044-.044v-.044l-.029-.029V64.06l-.029-.029V64l-.029-.029h0v-.029h0v-.029h0v.015l.029.029.044.044.044.058.058.073.058.087.073.1.073.1.073.1.073.1.073.087.058.087.058.087.058.087.058.073.044.073.044.058.044.058.044.058.044.058.029.044.029.044.029.044.029.044v.029l.044.029v.029l.029.029v.029l.015.015h0v.029h0v.015h0v-.015h0v-.029h0l-.015-.044-.029-.029-.044-.058-.044-.073-.058-.1-.087-.131-.087-.131-.087-.117-.073-.117-.073-.1-.058-.087-.058-.087-.058-.087-.044-.073-.044-.073-.044-.073-.044-.058-.044-.058-.029-.058-.029-.044-.029-.029-.029-.029V64l-.044-.029h-.015l-.015-.029h-.015v-.029h0V63.9h0" transform="translate(20.501 -5.418)" fill="#7f90a4"/>
        <path id="パス_24" data-name="パス 24" d="M47.878,65.1a1.2,1.2,0,0,1,.408-.306,1.324,1.324,0,0,0-.5.248.045.045,0,0,0-.029.015,1.265,1.265,0,0,1,.146-.1,2.944,2.944,0,0,0-.525.262c0-.015.029-.029.044-.044a1.644,1.644,0,0,1-.19.146.442.442,0,0,1-.1.073c-.292.2-.612.394-.889.612a6.606,6.606,0,0,0-.758-1.5c-.087-.219-.189-.452-.292-.685-.117-.292-.539-.452-.656-.073a4.124,4.124,0,0,0,.671,1.691,6.849,6.849,0,0,1,.335.612c.044.1.087.2.131.292v.015c-.044.029-.073.044-.117.073a2.4,2.4,0,0,0-.306.131c-.117.087-.394.306-.408.321.16-.058.292-.16.452-.233a2.186,2.186,0,0,0,.525-.16h.1c-.044.029-.1.073-.146.1A4.406,4.406,0,0,0,48.1,65.037c-.189.131-.379.277-.583.408a3.07,3.07,0,0,1,.394-.364Z" transform="translate(20.4 -5.593)" fill="#7f90a4"/>
        <path id="パス_25" data-name="パス 25" d="M93.111,24.013c-.452.117-.875.321-1.326.437-.758.2-1.531.35-2.289.539a25.292,25.292,0,0,0-4.49,1.647c-.816.452-1.312.554-1.968.962a2.1,2.1,0,0,0-.364.262A31.04,31.04,0,0,0,79.03,30a43.893,43.893,0,0,0-4.446,3.644,25.079,25.079,0,0,0-4.767,4.825,29.379,29.379,0,0,0-1.924,2.493,21.978,21.978,0,0,0-1.633,2.347,26.705,26.705,0,0,0-1.735,2.828,3.577,3.577,0,0,0-.35.758.365.365,0,0,1,.058-.1.57.57,0,0,1,.117-.146.6.6,0,0,1-.1.16c.262-.233.7-.685.889-.816a59.225,59.225,0,0,0,5.6-4.009c1.079-.845,1.851-1.545,2.711-2.157q1.334-.853,2.711-1.662a2.794,2.794,0,0,1,.131.466c-.029-.073-.044-.131-.073-.19a3.44,3.44,0,0,1-.146,2.143h0a.262.262,0,0,0-.131.087h0a.21.21,0,0,0-.044.029.981.981,0,0,1-.175.087,57.621,57.621,0,0,0-7.595,5.014c-2.187,1.574-4.5,2.974-6.632,4.621A35.319,35.319,0,0,0,58.52,52.89c-1.633,1.705-3.178,3.513-4.737,5.291-.554.6-1.108,1.2-1.633,1.822a10.264,10.264,0,0,0-1.137,1.254,31.826,31.826,0,0,0-3.688,6.02c-.233.6-.612,1.21-.845,1.735C47,68.327,47.5,67.554,48,66.825h0a.045.045,0,0,1-.015.029,2.537,2.537,0,0,1,.189-.219v.015a1.851,1.851,0,0,1,.16-.19,2.538,2.538,0,0,1,.19-.219,2.8,2.8,0,0,0,.2-.219l.131-.131c-.292.335-.569.671-.875.991.583-.5,1.37-1.2,1.866-1.589a18.742,18.742,0,0,0,2.172-1.6,42.587,42.587,0,0,0,4.533-3.221,61.618,61.618,0,0,1,5.408-4.111,29.535,29.535,0,0,1,6.224-3.236c.423-.16.787-.306,1.122-.452-.248.117-.51.248-.758.394a56.111,56.111,0,0,1,5.831-1.618c.262-.058.51-.1.773-.16a.524.524,0,0,0,.16-.029,15.511,15.511,0,0,0-2.959,2.274,5.069,5.069,0,0,0-.685.685c.015,0,.029-.029.058-.044-.015.029-.044.044-.058.073a.045.045,0,0,0,.029-.015c-.029.029,1.166-.729,1.735-1.181h0c.015.16.19.277.408.175.277-.175.554-.364.816-.539a1.616,1.616,0,0,0,.277-.131c.292-.2.583-.423.86-.656,1.326-.8,2.361-1.851,3.877-2.318a4.674,4.674,0,0,0-.627.1.27.27,0,0,0,.1-.029,3.208,3.208,0,0,0,.758-.189.976.976,0,0,1-.292,0,31.683,31.683,0,0,0-3.528.1,11.675,11.675,0,0,0-3.571.583c-.773.262-1.56.466-2.318.758a5.282,5.282,0,0,0-.627.35c.233-.219.452-.452.685-.671.831-.554,1.56-1.268,2.07-1.618,1.574-1.385,3.207-2.711,4.635-4.227a19.913,19.913,0,0,0,2.857-4.329,12.942,12.942,0,0,0,.8-4.708c-.058-.729-.146-1.37-.233-2.07a5.9,5.9,0,0,0,.1-1.02c.321-.19.656-.364.962-.539,1.166-.6,1.764-.743,3-1.487h-.015a26.926,26.926,0,0,0,3.775-2.3,33.743,33.743,0,0,0,2.857-2.1,19.325,19.325,0,0,0,2.478-2.405c-.146.087-.277.175-.423.262Z" transform="translate(21.288 -23.78)" fill="#7f90a4"/>
        <path id="パス_26" data-name="パス 26" d="M164.335,47.36a16.01,16.01,0,0,1-2.58,2.187l.029-.029a2.59,2.59,0,0,1-.437.248c.1-.1.2-.189.306-.292-3.265,2.187-7.026,3.134-10.831,4.737-5.889,2.595-13.615,5.554-20.408,5.977-14.737,3.688-30.116,3.28-45,6.122-.816.117-1.647.277-2.478.423a8.086,8.086,0,0,1-2.318.466h-.277c-4.154.8-8.411,1.764-12.624,2.361-5.058.175-11.385,3.455-15.116,7.274a.284.284,0,0,1-.1-.015h0c-1.2.306-4.286-.51-5.16.743-2.041.277-1.239,1.545.437.9-.044.656.35.875.845.9a.713.713,0,0,0,.015.35c-.991,1.254.656,2.055,1.778,1.982a1.189,1.189,0,0,0,.918,1.3c-1.647-.073-1.837,2.114-.1,1.764.233,1.283,1.778.525,2.609.321-1.093.364-3.221,1.88-1.4,2.624a1.111,1.111,0,0,0,.277,1.866,8.865,8.865,0,0,0-.641.641c-1.589.51-3.236,1.05-4.767,1.676,2.347-.525,4.679-1.05,7.07-1.341C53.609,91.7,50.927,93.2,51.86,94.72c1.574,1.181,5.306-3.688,6.924-4.475A68.6,68.6,0,0,1,78.156,92.49c7.974,1.443,16.107,2.3,23.454,6.02-1.326-1.152-2.755-1.414-4.052-2.041.146.058.292.1.437.146a18.876,18.876,0,0,0-4.606-1.953.248.248,0,0,1,.1.015,50.776,50.776,0,0,0-10.9-2.595c0-.35-.379-.408-.671-.423-4.956-.656-9.664-2.711-14.329-4.431,15.262-.6,30.568,2.449,45.757.379C98.622,87.2,84.089,85.274,69.5,83.5c.292-.175.583-.35.889-.51,9.9.962,19.941.554,29.868.117,9.256-1.152,17.58-3.163,26.778-4.111a1.763,1.763,0,0,1-.277-.015c2.376-.277,4.65-1.152,7.041-1.21-17.755.394-35.422,3.309-53.249,2.259,9.417-2.23,19.169-1.633,28.673-3.484,6.312-1.152,12.347-3.426,18.717-4.431,9.008-.875,17.653-2.915,26.268-4.825-11.239,1.385-21.924,2.1-33.1,3.309-6.793.539-13.454,2.012-20.218.51-.029-.015-.044-.044-.058-.058,5.248-5.087,15.131-3.149,21.515-5.131,7.653-1.108,15.5-2.507,22.638-5.5-.466.248-1.02.466-1.429.7,7.172-1.822,14.431-5,18.775-11.253a.8.8,0,0,0-.131.1,25.179,25.179,0,0,0,2.1-2.566ZM52.195,90.187c.262-.2.525-.394.8-.569a3.8,3.8,0,0,0,1.064-.131.556.556,0,0,0,.131.131c-.671.175-1.326.364-1.982.569Z" transform="translate(21.127 -12.988)" fill="#7f90a4"/>
      </g>
    </g>
  </g>
</svg>
