<?xml version="1.0" encoding="UTF-8"?>
<svg id="_x31_0" xmlns="http://www.w3.org/2000/svg" viewBox="0 0 460.07 512">
  <defs>
    <style>
      .cls-1 {
        fill: #2fd196;
      }
    </style>
  </defs>
  <path class="cls-1" d="M91.95,392.7h276.11c9.53,0,17.26-7.73,17.26-17.26v-211.63c0-9.57-7.77-17.34-17.34-17.34H92.04c-9.57,0-17.34,7.77-17.34,17.34v211.63c0,9.53,7.73,17.26,17.26,17.26ZM221.65,279.34v-24.63h16.72v24.63h-16.72ZM285.96,269.41c-.41-.03-.82-.04-1.23-.08-3.45-.43-6.73-1.4-9.74-2.84-.2-.09-.38-.2-.58-.3-1.36-.69-2.67-1.46-3.92-2.34-.13-.09-.27-.18-.39-.27-9.84-7.13-15.42-19.78-12.15-33.39,0-.02.01-.04.01-.06.95-3.9,2.62-7.89,5.12-11.84,1.48-2.33,3.49-4.34,5.82-5.82,3.79-2.4,7.6-3.99,11.35-4.96.39-.1.79-.19,1.18-.27,1.42-.31,2.82-.51,4.2-.64.47-.04.94-.11,1.41-.13,1.62-.08,3.22-.04,4.78.12.26.03.51.06.76.09,1.48.19,2.92.48,4.32.87.6.16,1.17.37,1.75.57.96.32,1.91.68,2.82,1.09.59.26,1.17.54,1.73.83.93.49,1.82,1.03,2.69,1.6.45.3.93.57,1.36.89,1.24.91,2.42,1.9,3.52,2.98.27.27.5.57.77.85.83.88,1.62,1.79,2.34,2.77.33.44.64.91.95,1.37.6.89,1.15,1.82,1.66,2.79.25.48.51.96.74,1.45.54,1.16,1,2.36,1.39,3.59.11.32.24.62.34.94.45,1.55.76,3.16.96,4.8.06.45.06.91.09,1.37.09,1.13.12,2.27.09,3.43-.04,1.34-.2,2.64-.4,3.94-.1.67-.16,1.34-.3,2.02-2.66,11.94-12.05,21.33-24.05,23.96-.61.12-1.21.18-1.82.28-1.34.21-2.7.37-4.1.41-1.17.03-2.34,0-3.49-.09ZM293.08,309.9v28.64h-126.15v-28.64h126.15ZM189.92,263.57c-.13.09-.27.18-.4.27-1.24.87-2.55,1.65-3.92,2.34-.2.1-.38.21-.58.3-3.02,1.44-6.29,2.41-9.74,2.84-.4.05-.82.05-1.23.08-1.15.1-2.31.12-3.49.09-1.4-.04-2.75-.2-4.1-.41-.61-.09-1.21-.15-1.82-.28-11.99-2.64-21.39-12.02-24.05-23.96-.14-.68-.2-1.34-.3-2.02-.2-1.3-.36-2.6-.4-3.94-.03-1.16,0-2.3.09-3.43.04-.46.04-.92.09-1.37.2-1.64.52-3.25.96-4.8.09-.32.23-.62.34-.94.4-1.23.85-2.43,1.39-3.59.23-.5.49-.97.74-1.45.51-.96,1.06-1.89,1.66-2.79.31-.46.61-.93.95-1.37.72-.97,1.51-1.88,2.34-2.76.26-.28.5-.59.77-.86,1.09-1.08,2.27-2.07,3.51-2.98.44-.32.91-.6,1.37-.89.87-.57,1.75-1.11,2.68-1.6.57-.3,1.15-.57,1.74-.84.91-.41,1.86-.76,2.82-1.09.58-.2,1.15-.41,1.75-.57,1.41-.38,2.84-.68,4.32-.87.25-.04.5-.07.76-.09,1.56-.16,3.16-.2,4.78-.12.46.02.94.09,1.41.13,1.39.12,2.79.33,4.2.64.39.09.79.18,1.18.27,3.75.96,7.57,2.55,11.35,4.96,2.33,1.48,4.34,3.49,5.82,5.82,2.51,3.95,4.18,7.93,5.12,11.83,0,.02.01.05.02.07,3.26,13.61-2.32,26.26-12.15,33.39Z"/>
  <path class="cls-1" d="M448.52,232.71c-7.14-7.14-17.01-11.57-27.91-11.57h-12.35v78.91h12.35c21.8,0,39.47-17.66,39.47-39.45,0-10.9-4.43-20.77-11.55-27.9Z"/>
  <path class="cls-1" d="M11.55,232.71c-7.13,7.13-11.55,16.99-11.55,27.9,0,21.79,17.66,39.45,39.47,39.45h12.35v-78.91h-12.35c-10.9,0-20.77,4.42-27.91,11.57Z"/>
  <path class="cls-1" d="M217.81,46.8c3.76,2.08,5.92,6.08,5.44,10.32l-7.35,61.59-.89,7.29h.02l-.02.16h30.08l-8.24-69.04c-.48-4.24,1.68-8.24,5.36-10.32,7.44-4.24,12.48-12.24,12.48-21.44,0-13.59-10.95-24.55-24.54-24.64l.07-.56-.02-.14-.08.7h0l-.08-.72-.08.72c-13.6.08-24.56,11.04-24.56,24.64,0,9.2,4.96,17.2,12.4,21.44ZM225.09,11.6c4.96,0,8.96,4,8.96,8.88s-4,8.96-8.96,8.96-8.96-4-8.96-8.96,4-8.88,8.96-8.88Z"/>
  <path class="cls-1" d="M374.67,416.61H85.4c-16.96,0-30.62,13.73-30.62,30.62v64.77h350.51v-64.77c0-16.89-13.66-30.62-30.62-30.62Z"/>
</svg>