<?xml version="1.0" encoding="UTF-8"?>
<svg id="_x31_0" xmlns="http://www.w3.org/2000/svg" viewBox="0 0 512 334.98">
  <defs>
    <style>
      .cls-1 {
        fill: #2fd196;
      }
    </style>
  </defs>
  <path class="cls-1" d="M469.79,279.83V35.4c0-19.55-15.85-35.4-35.41-35.4H77.62c-19.55,0-35.4,15.84-35.4,35.4v244.43H0v4.38c0,28.02,22.72,50.77,50.77,50.77h410.45c28.05,0,50.79-22.74,50.79-50.77v-4.38h-42.21ZM288,310.62c0,2.38-1.91,4.25-4.27,4.25h-55.48c-2.34,0-4.25-1.88-4.25-4.25v-6.45c0-2.37,1.91-4.27,4.25-4.27h55.48c2.37,0,4.27,1.91,4.27,4.27v6.45ZM434.38,279.83H77.62V35.4h356.77v244.43Z"/>
  <path class="cls-1" d="M50.77,334.82c-27.9,0-50.61-22.7-50.61-50.61v-4.38l42.06.16.16-244.59C42.38,15.97,58.19.16,77.62.16h356.77c19.43,0,35.25,15.81,35.25,35.24v244.43l42.37.16-.16,4.22c0,27.9-22.71,50.61-50.63,50.61H50.77ZM228.25,299.74c-2.43,0-4.41,1.99-4.41,4.43v6.45c0,2.43,1.98,4.41,4.41,4.41h55.48c2.49,0,4.43-1.94,4.43-4.41v-6.45c0-2.45-1.99-4.43-4.43-4.43h-55.48ZM77.46,279.83l356.93.16.16-244.59-357.09-.16v244.59Z"/>
  <path class="cls-1" d="M132.65,219.26l17.83,1.19c2.68.11,5.36.16,8.05.25,1.31.04,2.62.08,3.93.12,5.27.15,10.54.26,15.81.33,1.51.02,3.01.03,4.51.05,2.55.02,5.1.08,7.64.08,13.22,0,26.44-.26,39.63-.82l17.83-1.17c.82-.04,1.45-.76,1.37-1.56-.41-3.9-1.54-9.42-2.27-13.17-.13-.74-.93-1.73-2.21-2.93-9.51-8.88-35.57-24.48-37.42-24.9h-.78v-15.36c.19-.11.34-.26.51-.39.11-.08.21-.16.32-.24,3.29-2.66,4.2-8.37,4.46-10.21.02-.1.04-.17.05-.27.45.15.9.21,1.29.21,4.66,0,5.39-9.49,5.68-12,.26-2.51-.84-4.29-1.65-4.96.2-.41.41-1,.63-1.71.54-1.77,1.04-4.33,1.24-7.04.28-3.96-.06-8.28-1.95-10.94-.65-.93-1.67-2.1-2.84-3.27-2.71-2.69-6.26-5.42-8.34-5.42-3.38-6.07-7.69-10.01-15.67-10.53-.48-.04-.97-.04-1.49-.06h-.11c-6.63,0-17.9,7.87-22.41,16.01-4.51,8.13-5.85,11.07-3.57,21.26.22.71.43,1.3.65,1.71-.8.67-1.91,2.45-1.65,4.96.26,2.51,1,12,5.65,12,.41,0,.85-.06,1.32-.21.11.82.52,3.1,1.37,5.42.85,2.34,2.1,4.7,3.95,5.7v5.28l-.15,9.9v.17h-.63c-1.82.41-27.86,16.01-37.4,24.9-1.3,1.19-2.08,2.19-2.23,2.93-.74,3.75-1.86,9.25-2.27,13.15-.09.8.54,1.52,1.34,1.56Z"/>
  <path class="cls-1" d="M178.26,220.99c-5.27-.07-10.54-.18-15.81-.33l-11.97-.37-17.83-1.19c-.35-.02-.67-.18-.9-.45-.23-.27-.33-.6-.29-.93.37-3.5,1.34-8.39,2.04-11.96l.23-1.17c.14-.68.88-1.64,2.18-2.84,9.51-8.86,35.7-24.49,37.32-24.86h.16l.6-.33.15-9.9v-5.29c-1.6-.96-2.9-2.85-3.95-5.76-.8-2.21-1.23-4.42-1.36-5.38-.65,0-1.07.08-1.48.08-4.31,0-5.18-8.66-5.46-11.5-.3-2.9.84-4.58,1.56-5.18-.17-.6-.39-1.18-.6-1.88-2.24-10.04-1.02-12.87,3.56-21.13,4.37-7.89,15.6-15.93,22.27-15.93l1.59.06c7.07.46,11.72,3.59,15.54,10.45,2.22.08,5.87,2.98,8.37,5.45,1.16,1.16,2.18,2.32,2.82,3.25,2.02,2.86,2.16,7.47,1.92,10.84-.18,2.48-.62,5.03-1.23,7.01-.21.71-.43,1.29-.62,1.69.76.79,1.9,2.48,1.63,5.01-.35,3.28-1.26,11.86-5.52,11.86-.4,0-.83-.07-1.24-.21-.93,5.23-2.46,8.72-4.66,10.51l-.89.76v15.36l.94.16c1.6.36,27.8,15.98,37.31,24.85,1.32,1.23,2.05,2.19,2.16,2.84l.2,1.04c.72,3.62,1.7,8.58,2.07,12.12.04.34-.07.67-.29.93-.23.27-.57.44-.92.45l-17.83,1.17c-12.75.55-26.08.82-39.62.82l-12.15-.12Z"/>
  <path class="cls-1" d="M296.29,125h82.35c1.14,0,2.06-.92,2.06-2.06v-10.51c0-1.14-.92-2.06-2.06-2.06h-82.35c-1.14,0-2.06.92-2.06,2.06v10.51c0,1.14.92,2.06,2.06,2.06Z"/>
  <path class="cls-1" d="M296.29,124.84c-1.05,0-1.9-.85-1.9-1.9v-10.51c0-1.05.85-1.9,1.9-1.9h82.35c1.05,0,1.9.85,1.9,1.9v10.51c0,1.05-.85,1.9-1.9,1.9h-82.35Z"/>
  <path class="cls-1" d="M296.29,165.21h82.35c1.14,0,2.06-.92,2.06-2.06v-10.51c0-1.14-.92-2.06-2.06-2.06h-82.35c-1.14,0-2.06.92-2.06,2.06v10.51c0,1.14.92,2.06,2.06,2.06Z"/>
  <path class="cls-1" d="M296.29,165.05c-1.05,0-1.9-.85-1.9-1.9v-10.51c0-1.05.85-1.9,1.9-1.9h82.35c1.05,0,1.9.85,1.9,1.9v10.51c0,1.05-.85,1.9-1.9,1.9h-82.35Z"/>
  <path class="cls-1" d="M296.29,205.42h82.35c1.14,0,2.06-.92,2.06-2.06v-10.51c0-1.14-.92-2.06-2.06-2.06h-82.35c-1.14,0-2.06.92-2.06,2.06v10.51c0,1.14.92,2.06,2.06,2.06Z"/>
  <path class="cls-1" d="M296.29,205.26c-1.05,0-1.9-.85-1.9-1.9v-10.51c0-1.05.85-1.9,1.9-1.9h82.35c1.05,0,1.9.85,1.9,1.9v10.51c0,1.05-.85,1.9-1.9,1.9h-82.35Z"/>
</svg>