<?xml version="1.0" encoding="UTF-8"?>
<svg id="_x31_0" xmlns="http://www.w3.org/2000/svg" viewBox="0 0 512 471.81">
  <defs>
    <style>
      .cls-1 {
        fill: #2fd196;
      }
    </style>
  </defs>
  <path class="cls-1" d="M511.93,425.01l-20.91-383.04c-1.29-23.53-20.75-41.97-44.32-41.97H65.3C41.72,0,22.26,18.43,20.98,41.97L.07,425.01c-.66,12.18,3.71,24.09,12.09,32.94,8.38,8.85,20.04,13.87,32.23,13.87h423.23c12.19,0,23.85-5.02,32.23-13.87,8.38-8.85,12.76-20.76,12.09-32.94ZM463.21,346.86H48.78S65.3,44.39,65.3,44.39h381.41l15.63,286.23.88,16.24ZM44.39,427.42l3.52-64.55h416.18l3.35,61.38.17,3.19H44.39Z"/>
  <path class="cls-1" d="M336.96,114.84c-13.29,0-24.07,10.78-24.07,24.07,0,7.29,3.31,13.74,8.43,18.16l-13.65,82.43c-.6,3.64-3.95,6.35-6.54,6.35h-90.25c-2.59,0-5.94-2.71-6.54-6.35l-13.65-82.43c5.12-4.41,8.43-10.87,8.43-18.16,0-13.29-10.78-24.07-24.07-24.07s-24.07,10.78-24.07,24.07c0,10.23,6.41,18.92,15.42,22.4l13.62,82.21c2.5,15.13,16.06,26.99,30.87,26.99h90.25c14.81,0,28.37-11.85,30.87-26.98l13.62-82.21c9.01-3.48,15.42-12.17,15.42-22.4,0-13.29-10.78-24.07-24.07-24.07Z"/>
</svg>