<?xml version="1.0" encoding="UTF-8"?>
<svg id="_x31_0" xmlns="http://www.w3.org/2000/svg" viewBox="0 0 512 384.44">
  <defs>
    <style>
      .cls-1 {
        fill: #2fd196;
      }
    </style>
  </defs>
  <path class="cls-1" d="M32.8,364.19l13.95,14.54,5.49,5.71h407.52l5.49-5.71,14.02-14.62c18.7-4.01,32.72-20.63,32.72-40.44v-17.14c0-10.83-8.75-19.59-19.59-19.59h-20.18V26.64c0-14.62-12.02-26.64-26.64-26.64H66.41c-14.62,0-26.64,12.02-26.64,26.64v260.3h-20.18c-10.76,0-19.59,8.76-19.59,19.59v17.14c0,19.89,14.1,36.51,32.8,40.51ZM190.55,21.3c3.41,0,5.05,4.31,2.75,6.82L64.93,163.1c-2.38,2.6-6.53.82-6.53-2.75V33.76c0-6.83,5.34-12.46,11.87-12.46,0,0,120.28,0,120.28,0ZM466.93,350.2l-15.03,15.7H60.11l-15.14-15.8h248.9l173.06.11ZM493.45,323.67c0,8.09-4.23,15.29-10.68,19.29H29.31c-6.46-4-10.76-11.2-10.76-19.29v-17.14l1.04-1.04h472.82l1.04,1.04v17.14h0Z"/>
  <path class="cls-1" d="M302.82,321.89h-93.57c-1.41,0-2.6,1.11-2.6,2.52v3.19c0,1.34,1.19,2.52,2.6,2.52h93.57c1.33,0,2.52-1.19,2.52-2.52v-3.19c0-1.41-1.19-2.52-2.52-2.52Z"/>
  <path class="cls-1" d="M427.71,321.89h-3.19c-1.41,0-2.52,1.11-2.52,2.52v3.19c0,1.34,1.11,2.52,2.52,2.52h3.19c1.34,0,2.52-1.19,2.52-2.52v-3.19c0-1.41-1.19-2.52-2.52-2.52Z"/>
</svg>