<?xml version="1.0" encoding="UTF-8"?>
<svg id="_x31_0" xmlns="http://www.w3.org/2000/svg" viewBox="0 0 512 477.44">
  <defs>
    <style>
      .cls-1 {
        fill: #2fd196;
      }
    </style>
  </defs>
  <path class="cls-1" d="M183.68,363.28h.8v16.96c0,25.2-11.36,31.84-19.92,34.64-3.84,1.28-7.36,1.68-9.52,1.84-11.84.4-21.36,10.4-21.36,22.56v15.44c0,12.56,10.16,22.72,22.64,22.72h199.36c12.48,0,22.64-10.16,22.64-22.72v-15.44c0-12.24-9.6-22.16-21.76-22.64-1.84-.08-5.28-.48-9.04-1.76-8.64-2.8-20-9.44-20-34.64v-16.96h157.84c14.64,0,26.64-12,26.64-26.64V26.64c0-14.64-12-26.64-26.64-26.64H26.64C12,0,0,12,0,26.64v310c0,14.64,12,26.64,26.64,26.64h157.03ZM358.32,454.72c0,1.52-1.2,2.72-2.64,2.72h-199.36c-1.52,0-2.64-1.2-2.64-2.72v-15.44c0-1.36,1.04-2.56,2.48-2.64,1.76-.08,4.24-.32,7.28-.88h185.04c3.04.56,5.52.8,7.28.88,1.52.08,2.56,1.28,2.56,2.64v15.44h0ZM307.52,363.28v16.96c0,11.86,2.18,21.13,5.54,28.54.03.06.05.12.08.18.84,1.84,1.75,3.56,2.74,5.16.16.27.31.53.48.79.9,1.41,1.85,2.71,2.84,3.95.36.46.72.92,1.1,1.37.79.9,1.6,1.73,2.43,2.54.72.72,1.44,1.44,2.21,2.12.12.11.26.2.38.3,1.18,1.01,2.38,2.01,3.68,2.91h-80.36l-65.66-.13c11.29-7.55,21.5-21.61,21.5-47.71v-16.96h103.04ZM496,288v48.64c0,5.76-4.88,10.64-10.64,10.64H26.64c-5.76,0-10.64-4.88-10.64-10.64v-48.64h480ZM153.36,28.08L25.12,162.96c-2.4,2.56-6.48.8-6.48-2.8V33.76c0-6.88,5.28-12.48,11.84-12.48h120.16c3.36,0,5.04,4.32,2.72,6.8Z"/>
</svg>