<?xml version="1.0" encoding="UTF-8"?>
<svg id="_x31_0" xmlns="http://www.w3.org/2000/svg" viewBox="0 0 512 510.33">
  <defs>
    <style>
      .cls-1 {
        fill: #2fd196;
      }
    </style>
  </defs>
  <path class="cls-1" d="M511.48,201.19L408.48,27.45c-1.16-1.91-3.7-2.53-5.61-1.37l-25.86,15.41-.03.02h0l-.14.09,31.44,53.03c2.73-.82,5.33-1.98,7.86-3.41l26.23,44.25,16.76,28.47h0c-3.28,1.99-6.15,4.31-8.54,7.11-7.93,8.61-11.07,20.57-8.68,31.85.75,4.04,2.19,7.86,4.3,11.48l-39.5,23.41-34.18,20.1h.27l-.27.16h50.92l86.53-51.33c1.91-1.09,2.6-3.62,1.5-5.54Z"/>
  <polygon class="cls-1" points="248.4 171.39 221.2 187.52 215.25 177.54 242.52 161.34 237.19 152.39 223.66 160.39 215.55 165.09 215.53 165.03 215.59 164.35 217.85 145.28 220.04 127.38 221.22 117.92 221.42 116.51 221.39 116.52 221.4 116.44 221.34 116.51 221.34 116.37 203.56 126.9 200.56 151.98 200.15 155.06 199.19 163.6 198.96 165.41 198.89 165.71 188.94 161.68 186.07 160.52 162.62 151.16 151.62 157.65 145.48 161.22 144.91 161.54 144.93 161.54 144.92 161.55 144.99 161.62 144.85 161.68 171.85 172.55 189.69 179.73 190.14 179.9 190.39 180.1 168.99 192.77 168.98 192.77 168.98 192.77 168.84 192.85 174.17 201.88 201.45 185.74 207.32 195.72 180.12 211.85 185.34 220.68 185.37 220.74 185.37 220.74 185.45 220.88 212.66 204.68 226.39 227.85 240.2 219.65 226.53 196.54 253.59 180.43 253.59 180.43 253.59 180.43 253.73 180.34 248.4 171.39"/>
  <path class="cls-1" d="M52.86,224.43c17.5-10.39,23.24-33.01,12.92-50.51l204.23-121.11c.82,1.38,1.83,2.54,2.79,3.77.04.05.07.1.11.15,9.2,11.67,24.34,16.53,38.39,12.74.08-.02.16-.04.25-.06,1.36-.38,2.7-.83,4.02-1.37,1.43-.56,2.83-1.22,4.2-1.95.25-.14.52-.21.76-.35l40.39,68.13,2.67,4.52h0c-17.5,10.39-23.31,33.02-12.92,50.51l-51.61,30.6-44.43,26.18h.27l-.27.16h50.85l108.95-64.59c1.91-1.16,2.53-3.62,1.43-5.54L312.86,1.95c-1.16-1.91-3.62-2.53-5.54-1.37L2,181.57c-1.91,1.09-2.6,3.62-1.43,5.54l42.1,70.95h30.14l-19.96-33.63Z"/>
  <polygon class="cls-1" points="98.79 249.92 161.29 212.81 162.08 212.35 162.07 212.34 162.21 212.26 159 206.93 96.12 244.2 95.71 244.44 95.71 244.44 95.57 244.52 98.79 249.92"/>
  <polygon class="cls-1" points="320.78 118.29 317.76 113.09 317.72 113.02 317.72 113.02 317.64 112.88 254.21 150.48 257.36 155.88 320.78 118.29"/>
  <path class="cls-1" d="M135.22,298.18h79.01v-22.05h0v-.16H81.9c-3.35,0-6.08,2.73-6.08,6.08v15.97h0v.16h59.4Z"/>
  <path class="cls-1" d="M304.86,298.18h131.3v-16.13c0-3.35-2.67-6.08-6.09-6.08h-132.32v22.05h0v.16h7.11Z"/>
  <path class="cls-1" d="M451.26,309.25h-153.51v25.7c-1.37,1.02-2.67,2.33-3.69,3.76-.68,1.09-1.3,2.19-1.78,3.42-.55,1.37-.96,2.8-1.09,4.38h-4.44v-75.05c0-3.89-3.21-7.11-7.11-7.11h-47.3c-3.9,0-7.04,3.21-7.04,7.11v75.05h-4.51c-.14-1.57-.48-3.01-1.02-4.38-.48-1.16-1.1-2.32-1.85-3.42-.07-.14-.21-.2-.27-.34-.96-1.3-2.12-2.46-3.42-3.42v-25.54h0v-.16H60.72c-3.28,0-6.02,2.66-6.02,6.02v176.27c0,10.39,8.48,18.8,18.86,18.8h364.92c10.39,0,18.8-8.41,18.8-18.8v-176.27c0-3.35-2.67-6.02-6.02-6.02ZM79.3,476.23v-33.49c0-6.42,7.93-9.5,12.23-4.79,12.99,14.15,29.73,26.25,49.35,35.68,6.77,3.28,4.51,13.46-3.08,13.46h-47.64c-6.01,0-10.87-4.85-10.87-10.87ZM214.23,357.91c.41.07.82.07,1.23.07h81.06c.41,0,.89,0,1.23-.07,2.8-.55,4.92-2.87,4.92-5.67v-6.29c0-1.5,1.37-2.73,3.07-2.73h8.89c1.71,0,3.07,1.23,3.07,2.73v37.73c0,1.5-1.37,2.73-3.07,2.73h-8.89c-1.71,0-3.07-1.23-3.07-2.73v-6.29c0-2.73-2.12-5.06-4.92-5.61-.34-.14-.82-.14-1.23-.14h-81.06c-.41,0-.82,0-1.23.14-2.8.55-4.85,2.87-4.85,5.61v6.29c0,.75-.34,1.43-.96,1.91-.27.27-.68.48-1.09.61-.34.14-.68.21-1.09.21h-8.89c-1.71,0-3.07-1.23-3.07-2.73v-37.73c0-1.5,1.36-2.73,3.07-2.73h8.89c.75,0,1.5.27,2.05.75.68.41,1.09,1.16,1.09,1.98v6.29c0,2.8,2.05,5.13,4.85,5.67ZM214.23,400.84v-6.15c2.46-1.78,4.38-4.31,5.54-7.17.54-1.37.89-2.8,1.02-4.31h4.51v44.77l26.11,23.58c1.36,1.16,2.94,1.71,4.58,1.71s3.28-.55,4.58-1.71l26.18-23.58v-44.77h4.44c.14,1.5.55,2.94,1.09,4.31,1.09,2.87,3.07,5.4,5.47,7.17v38.21l-3.62,3.28-26.18,23.58-.14.14-.14.14c-3.28,2.73-7.45,4.24-11.69,4.24s-8.41-1.5-11.62-4.24l-.2-.14-.14-.14-26.18-23.58-3.62-3.28v-32.05Z"/>
</svg>