<?xml version="1.0" encoding="UTF-8"?>
<svg id="_レイヤー_2" data-name="レイヤー_2" xmlns="http://www.w3.org/2000/svg" viewBox="0 0 44 44">
  <defs>
    <style>
      .cls-1 {
        fill: #d6d6d6;
      }
    </style>
  </defs>
  <g id="_レイヤー_1-2" data-name="レイヤー_1">
    <path class="cls-1" d="M13,0C5.83,0,0,5.83,0,13v18c0,7.17,5.83,13,13,13h18c7.17,0,13-5.83,13-13V13c0-7.17-5.83-13-13-13H13ZM34,8c1.1,0,2,.9,2,2s-.9,2-2,2-2-.9-2-2,.9-2,2-2ZM22,11c6.07,0,11,4.93,11,11s-4.93,11-11,11-11-4.93-11-11,4.93-11,11-11ZM22,13c-4.96,0-9,4.04-9,9s4.04,9,9,9,9-4.04,9-9-4.04-9-9-9Z"/>
  </g>
</svg>